<?xml version="1.0" encoding="utf-8"?>
<!-- Generator: Adobe Illustrator 16.0.0, SVG Export Plug-In . SVG Version: 6.00 Build 0)  -->
<!DOCTYPE svg PUBLIC "-//W3C//DTD SVG 1.1//EN" "http://www.w3.org/Graphics/SVG/1.1/DTD/svg11.dtd">
<svg version="1.1" id="Layer_1" xmlns="http://www.w3.org/2000/svg" xmlns:xlink="http://www.w3.org/1999/xlink" x="0px" y="0px"
	 width="280px" height="173.4521484px" viewBox="0 0 280 173.4521484" style="enable-background:new 0 0 280 173.4521484;"
	 xml:space="preserve">
<style type="text/css">
<![CDATA[
	.st0{fill:#969696;}
]]>
</style>
<g>
	<g>
		<path d="M85.2133789,60.7841797c-0.4990234,0-0.9487305,0.2060547-1.3500977,0.6181641
			c-0.4008789,0.4121094-0.6010742,0.9326172-0.6010742,1.5605469c0,0.390625,0.140625,1.2578125,0.4223633,2.6025391
			c0.4335938,2.015625,0.6503906,3.5556641,0.6503906,4.6181641c0,3.3818359-1.0458984,6.6445313-3.1381836,9.7880859
			c-2.0922852,3.1445313-4.0922852,4.7167969-6.0004883,4.7167969c-1.0405273,0-2.0595703-0.6455078-3.0571289-1.9355469
			c-0.9970703-1.2900391-1.7885742-3.1923828-2.3740234-5.7070313c1.8647461-2.1904297,3.3012695-4.5585938,4.309082-7.1064453
			c1.0083008-2.5478516,1.512207-4.6132813,1.512207-6.1953125c0-1.1494141-0.2109375-2.0107422-0.6337891-2.5859375
			c-0.4228516-0.5742188-1.0678711-0.8613281-1.9355469-0.8613281c-1.7993164,0-3.4414063,1.6855469-4.9267578,5.0566406
			c-1.4848633,3.3710938-2.2275391,7.4638672-2.2275391,12.2773438c0,0.3466797,0.0214844,0.8779297,0.0649414,1.59375
			c-0.1083984,0.1083984-0.4335938,0.4873047-0.9755859,1.1376953c-2.7753906,3.2519531-5.3554688,4.8789063-7.7402344,4.8789063
			c-1.3876953,0-2.4609375-0.65625-3.2197266-1.9677734s-1.1381836-2.6943359-1.1381836-4.1464844
			c0-1.5615234,0.3847656-3.3662109,1.1542969-5.4150391c0.7700195-2.0488281,1.9624023-4.3359375,3.5776367-6.8623047
			c1.6152344-2.5253906,2.7915039-4.2119141,3.5283203-5.0566406c0.5419922-0.6289063,0.8134766-1.0957031,0.8134766-1.3984375
			c0-0.3691406-0.1958008-0.5537109-0.5859375-0.5537109c-0.3466797,0-0.7802734,0.328125-1.300293,0.9873047
			c-0.737793,0.9667969-1.3769531,1.4521484-1.9189453,1.4521484c-0.3251953,0-0.7480469-0.140625-1.2685547-0.4228516
			c-2.5366211-1.2792969-4.4990234-1.9189453-5.8867188-1.9189453c-1.8427734,0-3.4091797,0.5527344-4.6992188,1.6591797
			c-1.2900391,1.1054688-1.9350586,2.3193359-1.9350586,3.6425781c0,0.7587891,0.2929688,1.4199219,0.8779297,1.9833984
			c0.5859375,0.5634766,1.3120117,0.8457031,2.1791992,0.8457031c0.7807617,0,1.3823242-0.265625,1.8051758-0.796875
			c0.4223633-0.53125,0.6342773-1.0673828,0.6342773-1.609375c0-1.1064453-0.4555664-1.8652344-1.3662109-2.2773438
			c-0.6938477-0.3251953-1.0405273-0.6171875-1.0405273-0.8779297c0-0.2597656,0.1245117-0.4550781,0.3740234-0.5849609
			c0.2490234-0.1298828,0.6235352-0.1953125,1.1220703-0.1953125c1.0620117,0,2.4389648,0.6074219,4.1298828,1.8212891
			c1.3227539,0.9541016,2.168457,1.4306641,2.5366211,1.4306641c0.4775391,0,1.1821289-0.2490234,2.1142578-0.7480469
			c-5.9189453,8.1630859-8.878418,14.375-8.878418,18.640625c0,1.6044922,0.4770508,2.9296875,1.4306641,3.9785156
			c0.9541016,1.0517578,2.2548828,1.578125,3.902832,1.578125c1.8642578,0,3.777832-0.5722656,5.7397461-1.7128906
			c1.9624023-1.1416016,3.9736328-2.8515625,6.0332031-5.1337891c0.2167969,1.9785156,0.9267578,3.5537109,2.1298828,4.7265625
			c1.2036133,1.1738281,2.7485352,1.7617188,4.6347656,1.7617188c2.3413086,0,4.7045898-1.1591797,7.0893555-3.4794922
			c2.3852539-2.3203125,4.2768555-5.7841797,5.675293-10.390625c1.3984375-4.6074219,2.0976563-8.0820313,2.0976563-10.4238281
			C87.5546875,61.7822266,86.7744141,60.7841797,85.2133789,60.7841797z M68.6269531,70.0283203
			c0-2.3007813,0.449707-4.1601563,1.3496094-5.5849609c0.8999023-1.4208984,1.6098633-2.1308594,2.1303711-2.1308594
			c0.4335938,0,0.7587891,0.2226563,0.9755859,0.6669922s0.3251953,1.1113281,0.3251953,2.0029297
			c0,1.5419922-0.3466797,3.1630859-1.0405273,4.8671875c-0.6938477,1.7050781-1.734375,3.4882813-3.1220703,5.3583984
			C68.8330078,73.3808594,68.6269531,71.6572266,68.6269531,70.0283203z M107.1982422,44.7236328
			c-0.4985352-0.5039063-1.0952148-0.7529297-1.7890625-0.7529297s-1.2954102,0.2441406-1.8046875,0.734375
			c-0.5097656,0.4902344-0.7646484,1.0976563-0.7646484,1.8183594c0,0.71875,0.2495117,1.328125,0.7485352,1.8320313
			c0.4985352,0.5009766,1.1054688,0.7529297,1.8208008,0.7529297c0.6938477,0,1.2905273-0.2519531,1.7890625-0.7529297
			c0.4985352-0.5039063,0.7475586-1.1132813,0.7475586-1.8320313
			C107.9458008,45.8242188,107.6967773,45.2226563,107.1982422,44.7236328z M103.1733398,82.0537109
			c-0.2817383,0-0.6611328,0.25-1.1381836,0.7480469c-1.0854492,1.1269531-2.2260742,2.0703125-3.4189453,2.8300781
			c-1.1938477,0.7578125-2.1274414,1.1376953-2.7993164,1.1376953c-0.3037109,0-0.5380859-0.0917969-0.7011719-0.2763672
			c-0.1621094-0.1845703-0.2436523-0.4609375-0.2436523-0.8300781c0-0.3681641,1.1601563-3.5117188,3.4799805-9.4306641
			c2.9702148-7.046875,4.5908203-10.9492188,4.8618164-11.7080078c0.2714844-0.7587891,0.4067383-1.5283203,0.4067383-2.3095703
			c0-0.6279297-0.265625-1.21875-0.796875-1.7724609c-0.5322266-0.5527344-1.1665039-0.8291016-1.9038086-0.8291016
			c-1.7792969,0-3.8076172,0.8730469-6.0854492,2.6181641c-2.2792969,1.7451172-3.4179688,2.9003906-3.4179688,3.4638672
			c0,0.3466797,0.1518555,0.5205078,0.4555664,0.5205078c0.3251953,0,0.8886719-0.390625,1.6923828-1.1708984
			c2.0625-1.9951172,3.5600586-2.9921875,4.4936523-2.9921875c0.3037109,0,0.5253906,0.0917969,0.6679688,0.2763672
			c0.1411133,0.1845703,0.2114258,0.4716797,0.2114258,0.8623047c0,0.9970703-1.5288086,5.1816406-4.5859375,12.5527344
			c-2.40625,5.8544922-3.609375,9.2685547-3.609375,10.2451172c0,0.6503906,0.3085938,1.21875,0.9262695,1.7070313
			c0.6181641,0.4882813,1.5249023,0.7324219,2.7172852,0.7324219c1.8671875,0,3.8945313-0.7871094,6.0869141-2.3583984
			c2.1899414-1.5712891,3.2861328-2.7373047,3.2861328-3.4960938
			C103.7587891,82.2275391,103.5634766,82.0537109,103.1733398,82.0537109z M127.9638672,61.109375
			c-0.8798828-0.7802734-1.8828125-1.1708984-3.0097656-1.1708984c-2.2353516,0-4.6484375,1.0058594-7.2392578,3.0195313
			c-2.5927734,2.015625-4.9521484,4.8183594-7.0761719,8.4121094c-2.1259766,3.5966797-3.1884766,7.0957031-3.1884766,10.4941406
			c0,1.9726563,0.6015625,3.5644531,1.8046875,4.7753906c1.2050781,1.2138672,2.8251953,1.8203125,4.8652344,1.8203125
			c3.1230469,0,5.8613281-1.203125,8.2148438-3.609375s3.53125-3.9785156,3.53125-4.7158203
			c0-0.390625-0.1738281-0.5849609-0.5214844-0.5849609c-0.3466797,0-0.7792969,0.3759766-1.3007813,1.1328125
			c-0.9970703,1.4667969-2.2539063,2.8320313-3.7714844,4.0917969c-1.5185547,1.2636719-2.9169922,1.8974609-4.1953125,1.8974609
			c-1.171875,0-2.0546875-0.4443359-2.6513672-1.3310547c-0.5966797-0.8857422-0.8935547-2.2167969-0.8935547-3.9921875
			c0-2.3544922,0.5742188-5.2460938,1.7226563-8.6748047c1.1494141-3.4287109,2.6074219-6.1083984,4.375-8.046875
			c1.7666016-1.9345703,3.2792969-2.8994141,4.5371094-2.8994141c0.3896484,0,0.7148438,0.0976563,0.9746094,0.2929688
			c0.2607422,0.1943359,0.5205078,0.8017578,0.78125,1.8203125c0.28125,0.9765625,0.5742188,1.6484375,0.8779297,2.0166016
			c0.3037109,0.3691406,0.7587891,0.5527344,1.3662109,0.5527344c0.5195313,0,1.0019531-0.2167969,1.4472656-0.6503906
			c0.4433594-0.4335938,0.6660156-1.0400391,0.6660156-1.8212891
			C129.2802734,62.8330078,128.8408203,61.8896484,127.9638672,61.109375z M156.4121094,79.9394531
			c-0.2607422,0-0.5634766,0.2285156-0.9111328,0.6835938c-1.0419922,1.4306641-2.1816406,2.6992188-3.4179688,3.8046875
			c-1.2382813,1.1064453-2.1601563,1.6591797-2.7675781,1.6591797c-0.6308594,0-0.9453125-0.3476563-0.9453125-1.0410156
			c0-1.1054688,1.0087891-4.4882813,3.0253906-10.1474609c2.1679688-6.1132813,3.2519531-10.0703125,3.2519531-11.8701172
			c0-1.0185547-0.3359375-1.875-1.0078125-2.5693359c-0.671875-0.6933594-1.5615234-1.0410156-2.6669922-1.0410156
			c-1.4306641,0-3.0732422,0.7753906-4.9267578,2.3261719c-1.8544922,1.5498047-4.3964844,4.3632813-7.6269531,8.4394531
			c4.640625-13.9628906,7.2421875-22.2451172,7.8056641-24.8466797c0.0654297-0.3037109,0.1298828-0.53125,0.1943359-0.6835938
			l0.1308594-0.4550781c0-0.1298828-0.0654297-0.2275391-0.1953125-0.2929688
			c-0.1298828-0.0644531-1.1269531-0.1083984-2.9921875-0.1298828l-5.6259766-0.0322266
			c-0.8671875,0-1.3017578,0.2001953-1.3017578,0.6015625s0.4121094,0.6777344,1.2363281,0.8291016
			c2.3632813,0.4394531,3.5449219,1.0185547,3.5449219,1.7402344c0,0.5439453-0.140625,1.2216797-0.4228516,2.0322266
			l-2.4072266,8.4882813l-4.6171875,14.4072266c-3.0136719,9.2363281-4.6289063,14.1689453-4.8457031,14.7978516
			c-0.109375,0.28125-0.1621094,0.53125-0.1621094,0.7480469c0,0.1513672,0.4433594,0.3466797,1.3330078,0.5859375
			c0.8886719,0.2382813,1.6582031,0.3574219,2.3085938,0.3574219c0.2607422,0,0.4824219-0.2226563,0.6669922-0.6669922
			c0.1835938-0.4443359,0.7314453-2.1083984,1.6425781-4.9921875c1.453125-4.6621094,2.8886719-8.2929688,4.3085938-10.8955078
			c1.4199219-2.6015625,3.2255859-4.8564453,5.4150391-6.7646484c2.1904297-1.9072266,3.7832031-2.8613281,4.7802734-2.8613281
			c0.3691406,0,0.640625,0.1191406,0.8134766,0.3574219s0.2607422,0.6074219,0.2607422,1.1054688
			c0,1.2148438-0.6621094,3.9033203-1.984375,8.0664063c-1.3222656,4.1621094-2.515625,7.5771484-3.5771484,10.2441406
			c-0.6513672,1.6689453-0.9755859,3.0576172-0.9755859,4.1630859c0,1.5605469,1.0625,2.3417969,3.1884766,2.3417969
			c2.0605469,0,4.2470703-1.1279297,6.5566406-3.3828125c2.3115234-2.2548828,3.4667969-3.7294922,3.4667969-4.4228516
			C156.9648438,80.1679688,156.7802734,79.9394531,156.4121094,79.9394531z M175.9501953,49.1083984
			c0.6933594,0,1.2890625-0.2519531,1.7890625-0.7529297c0.4980469-0.5039063,0.7480469-1.1132813,0.7480469-1.8320313
			c0-0.6992188-0.25-1.3007813-0.7480469-1.7998047c-0.5-0.5039063-1.0957031-0.7529297-1.7890625-0.7529297
			c-0.6943359,0-1.2958984,0.2441406-1.8046875,0.734375c-0.5097656,0.4902344-0.7646484,1.0976563-0.7646484,1.8183594
			c0,0.71875,0.2490234,1.328125,0.7470703,1.8320313C174.6279297,48.8564453,175.234375,49.1083984,175.9501953,49.1083984z
			 M174.2998047,82.5742188c0-0.3466797-0.1953125-0.5205078-0.5859375-0.5205078c-0.28125,0-0.6611328,0.25-1.1386719,0.7480469
			c-1.0849609,1.1269531-2.2265625,2.0703125-3.4179688,2.8300781c-1.1933594,0.7578125-2.1289063,1.1376953-2.8007813,1.1376953
			c-0.3027344,0-0.5371094-0.0917969-0.6992188-0.2763672c-0.1640625-0.1845703-0.2441406-0.4609375-0.2441406-0.8300781
			c0-0.3681641,1.1601563-3.5117188,3.4794922-9.4306641c2.9697266-7.046875,4.5908203-10.9492188,4.8623047-11.7080078
			c0.2705078-0.7587891,0.40625-1.5283203,0.40625-2.3095703c0-0.6279297-0.265625-1.21875-0.796875-1.7724609
			c-0.5322266-0.5527344-1.1669922-0.8291016-1.9042969-0.8291016c-1.7792969,0-3.8085938,0.8730469-6.0859375,2.6181641
			c-2.2792969,1.7451172-3.4160156,2.9003906-3.4160156,3.4638672c0,0.3466797,0.1503906,0.5205078,0.4550781,0.5205078
			c0.3242188,0,0.8886719-0.390625,1.6914063-1.1708984c2.0625-1.9951172,3.5605469-2.9921875,4.4941406-2.9921875
			c0.3027344,0,0.5253906,0.0917969,0.6679688,0.2763672c0.140625,0.1845703,0.2109375,0.4716797,0.2109375,0.8623047
			c0,0.9970703-1.5273438,5.1816406-4.5859375,12.5527344c-2.40625,5.8544922-3.609375,9.2685547-3.609375,10.2451172
			c0,0.6503906,0.3085938,1.21875,0.9277344,1.7070313c0.6171875,0.4882813,1.5234375,0.7324219,2.7167969,0.7324219
			c1.8671875,0,3.8945313-0.7871094,6.0859375-2.3583984C173.203125,84.4990234,174.2998047,83.3330078,174.2998047,82.5742188z
			 M194.8935547,60.1992188c-0.8896484,0-1.8681641,0.1083984-2.9316406,0.3251953l2.4609375-8.3583984
			c-1.3007813-0.1953125-2.7207031-0.3037109-4.2607422-0.3251953l-2.8779297,9.9785156
			c-2.6660156,1.5175781-5.0585938,3.3173828-7.1816406,5.3984375c-2.125,2.0849609-3.1855469,3.4853516-3.1855469,4.2011719
			c0,0.3466797,0.1523438,0.5205078,0.4550781,0.5205078c0.3046875,0,0.8789063-0.5527344,1.7246094-1.6582031
			c0.6953125-0.8896484,1.8457031-2.0380859,3.453125-3.4472656c1.6064453-1.4121094,2.9863281-2.4101563,4.1376953-2.9951172
			l-6.1191406,20.5400391c-2.3417969,7.8837891-3.8701172,12.8466797-4.5859375,14.8818359
			s-1.4853516,3.3740234-2.3095703,4.0136719c-0.8232422,0.6396484-1.9726563,1.0029297-3.4472656,1.0898438
			c-0.9316406,0.0644531-1.3984375,0.2978516-1.3984375,0.6992188c0,0.4003906,0.3046875,0.6015625,0.9111328,0.6015625
			c0.8232422,0,2.0166016-0.0654297,3.5771484-0.1953125c1.2363281-0.1298828,2.4287109-0.1953125,3.578125-0.1953125
			l7.1210938,0.1953125c0.5644531,0,0.8457031-0.2109375,0.8457031-0.6367188c0-0.3125-0.2597656-0.5019531-0.7792969-0.5664063
			c-2.7753906-0.2822266-4.1640625-1.1269531-4.1640625-2.53125c0-1.9511719,1.2265625-6.4609375,3.6806641-13.5371094
			c6.2001953-0.9765625,11.1201172-3.1328125,14.7607422-6.4697266c3.6416016-3.3388672,5.4628906-7.4257813,5.4628906-12.2607422
			c0-2.4501953-0.75-4.6074219-2.2480469-6.4716797C200.0751953,61.1308594,197.8486328,60.1992188,194.8935547,60.1992188z
			 M194.1708984,81.9453125c-3.1796875,2.8896484-6.0576172,4.3369141-8.6328125,4.3369141
			c-0.2148438,0-0.6054688-0.0429688-1.1679688-0.1308594l7.1972656-24.0341797
			c0.5634766-0.1513672,1.0498047-0.2275391,1.4619141-0.2275391c1.6464844,0,3.0439453,0.6777344,4.1914063,2.0273438
			c1.1474609,1.3554688,1.7216797,3.5888672,1.7216797,6.7080078
			C198.9423828,75.28125,197.3525391,79.0566406,194.1708984,81.9453125z M235.1474609,79.2568359
			c-0.3681641,0-0.8027344,0.4013672-1.3017578,1.203125c-0.6728516,1.0410156-1.5732422,2.1367188-2.7021484,3.2851563
			c-1.1503906,1.1484375-2.0625,1.7236328-2.734375,1.7236328c-0.2617188,0-0.4570313-0.0751953-0.5869141-0.2275391
			s-0.1943359-0.3789063-0.1943359-0.6835938c0-2.2265625,1.8857422-8.2822266,5.6582031-18.1552734
			c1.1054688-2.9453125,1.8320313-4.9697266,2.1787109-6.0732422c-0.9101563-0.1298828-1.6806641-0.1953125-2.3085938-0.1953125
			c-0.4560547,0-0.8681641,0.0654297-1.2353516,0.1953125l-4.9765625,10.5537109
			c-1.6484375,3.4658203-3.46875,6.5361328-5.4638672,9.2089844c-1.9951172,2.6748047-3.4150391,4.2929688-4.2607422,4.8564453
			s-1.484375,0.8457031-1.9179688,0.8457031c-0.3261719,0-0.6015625-0.1738281-0.8300781-0.5205078
			c-0.2275391-0.3466797-0.3408203-0.7255859-0.3408203-1.1376953c0-2.2285156,1.4306641-6.8740234,4.2919922-13.9335938
			c1.4101563-3.4638672,2.1152344-5.8134766,2.1152344-7.0488281c0-0.8457031-0.2988281-1.5908203-0.8945313-2.2412109
			c-0.5976563-0.6484375-1.296875-0.9736328-2.0996094-0.9736328c-1.7138672,0-3.7050781,1.1220703-5.9726563,3.3662109
			s-3.4003906,3.7451172-3.4003906,4.5039063c0,0.3037109,0.1523438,0.4560547,0.4550781,0.4560547
			c0.2822266,0,0.9003906-0.5742188,1.8554688-1.7236328c2.4746094-2.9277344,4.1777344-4.390625,5.1113281-4.390625
			c0.2382813,0,0.4121094,0.0595703,0.5214844,0.1787109c0.1083984,0.1162109,0.1621094,0.2958984,0.1621094,0.53125
			c0,0.671875-0.1943359,1.4746094-0.5839844,2.40625c-0.3261719,0.7783203-1.2578125,3.4746094-2.7978516,8.0878906
			c-1.5390625,4.6123047-2.4287109,7.4091797-2.6669922,8.3964844c-0.2382813,0.9863281-0.3574219,1.9560547-0.3574219,2.9072266
			c0,0.9521484,0.3203125,1.7802734,0.9589844,2.4853516c0.640625,0.7050781,1.3720703,1.0566406,2.1953125,1.0566406
			c3.2958984,0,7.3183594-3.6386719,12.0664063-10.9160156c-0.9111328,3.0273438-1.3662109,5.6152344-1.3662109,7.7617188
			c0,1.0625,0.1904297,1.859375,0.5693359,2.390625c0.3808594,0.53125,0.9492188,0.796875,1.7089844,0.796875
			c1.7792969,0,3.8339844-1.1875,6.1660156-3.5615234s3.4990234-4.0058594,3.4990234-4.8945313
			C235.6679688,79.4296875,235.4951172,79.2568359,235.1474609,79.2568359z M274.1806641,69.9316406
			c-6.8037109,3.3251953-12.0976563,2.7314453-15.8798828-1.7890625c-1.0869141-1.2929688-2.4257813-3.5039063-4.0224609-6.6240234
			c-1.3789063-2.7099609-2.7451172-4.875-4.1025391-6.4960938c-2.2353516-2.6669922-5.3388672-4.3798828-9.3134766-5.125
			c-3.9765625-0.7480469-8.1972656-0.3085938-12.65625,1.3037109c2.5195313-4.1845703,3.7324219-8.2685547,3.6445313-12.2529297
			c-0.0878906-3.9814453-1.2177734-7.2685547-3.390625-9.859375c-1.3769531-1.6445313-3.2714844-3.3798828-5.671875-5.1816406
			c-2.8144531-2.1435547-4.7636719-3.8623047-5.8515625-5.1601563c-3.7802734-4.5175781-3.4384766-9.8330078,1.0273438-15.9492188
			l-1.0957031-1.3095703c-3.5878906,3.7646484-5.5449219,8.2041016-5.8720703,13.3154297
			c-0.3271484,5.1083984,0.9951172,9.4316406,3.9619141,12.9736328c1.4160156,1.6914063,3.3027344,3.4287109,5.6523438,5.1894531
			c2.8027344,2.1083984,4.7050781,3.7617188,5.7050781,4.9570313c1.5878906,1.8974609,2.2753906,4.2685547,2.0654297,7.1171875
			c-0.2119141,2.8515625-1.4833984,5.5283203-3.8212891,8.0332031l1.2832031,1.53125
			c2.8535156-1.8320313,5.7070313-2.6103516,8.5644531-2.3310547c2.8515625,0.2841797,5.0742188,1.3710938,6.6611328,3.2685547
			c1.0009766,1.1953125,2.2919922,3.3554688,3.8779297,6.4882813c1.3242188,2.6230469,2.6972656,4.7802734,4.1142578,6.4775391
			c2.9873047,3.5664063,7.0097656,5.6337891,12.0722656,6.2138672c5.0634766,0.5722656,9.7773438-0.5830078,14.1435547-3.4775391
			L274.1806641,69.9316406z M236.8798828,44.8427734c0.5205078,0,3.0644531-1.3740234,7.6347656-4.1220703
			c4.5683594-2.7480469,7.609375-4.7636719,9.1220703-6.0488281c1.5126953-1.2841797,2.2685547-2.5771484,2.2685547-3.8779297
			c0-0.7480469-0.3173828-1.3662109-0.9511719-1.8535156c-0.6347656-0.4882813-1.2929688-0.7324219-1.9765625-0.7324219
			c-1.5605469,0-3.1054688,0.6992188-4.6337891,2.0976563s-3.9521484,3.9599609-7.2685547,7.6835938
			c-3.3173828,3.7236328-4.9765625,5.7802734-4.9765625,6.1708984
			C236.0986328,44.6152344,236.359375,44.8427734,236.8798828,44.8427734z"/>
	</g>
</g>
<g>
	<path class="st0" d="M218.0683594,118.6240234c0.9648438-1.7958984,4.5341797-0.9492188,3.7988281,0.9980469
		c-0.3095703,0.8212891-1.1435547,1.6328125-1.9121094,2.2441406c-1.8007813,1.4355469-4.1259766,1.9101563-6.2841797,2.9023438
		c-0.3896484,0.1787109,0.1660156,0.5634766,0.46875,0.5292969c3.3818359-0.390625,8.359375-2.8681641,8.8056641-5.671875
		c0.1787109-1.1269531-0.6953125-2.1542969-2.1181641-2.5185547c-1.4052734-0.3603516-3.2138672,0.0898438-3.3222656,1.3369141
		C217.4892578,118.625,217.9492188,118.8447266,218.0683594,118.6240234"/>
	<path class="st0" d="M214.0351563,126.6572266c3.296875,0.7929688,6.9326172,1.8378906,8,4.6054688
		c0.2597656,0.6748047,0.0126953,1.4101563-0.6445313,1.9277344c-0.5830078,0.4580078-1.4208984,0.6035156-2.2412109,0.4746094
		c-1.4765625-0.2285156-1.8886719-1.2490234-1.2988281-2.1943359c0.1503906-0.2421875-0.4785156-0.5869141-0.7177734-0.3671875
		c-1.4794922,1.3564453,0.0917969,3.0458984,2.0859375,3.3164063c1.9121094,0.2578125,3.5224609-0.4775391,3.9443359-1.9248047
		c0.4277344-1.4716797-1.1748047-3.1699219-2.5634766-4.0761719c-1.7431641-1.1367188-4.328125-2.0351563-6.6289063-2.1152344
		C213.6269531,126.2919922,213.8330078,126.6083984,214.0351563,126.6572266"/>
	<path class="st0" d="M225.7841797,120.8857422c-0.9677734,0.8300781-1.8691406,1.7011719-2.8935547,2.4941406
		c-1.0146484,0.7871094-2.3173828,1.328125-3.3125,2.0996094c-0.2832031,0.21875,0.2880859,0.609375,0.5908203,0.5400391
		c1.2724609-0.2939453,2.3886719-1.1826172,3.2822266-1.8974609c1.0966797-0.8769531,2.0625-1.8623047,2.8691406-2.9003906
		C226.4833984,121.0126953,226.0087891,120.6923828,225.7841797,120.8857422"/>
	<path class="st0" d="M219.7851563,125.9111328c1.2763672,0.4091797,2.4912109,0.8378906,3.5361328,1.546875
		c0.9804688,0.6650391,1.4667969,1.5009766,2.2158203,2.2880859c0.2109375,0.2207031,0.78125,0.25,0.7109375-0.1025391
		c-0.4121094-2.0820313-3.9863281-3.7285156-6.4628906-4.1259766
		C219.3427734,125.4472656,219.5068359,125.8222656,219.7851563,125.9111328"/>
	<path class="st0" d="M228.5078125,122.9638672c-0.5429688,0.4648438-1.0507813,0.9589844-1.6337891,1.3964844
		c-0.5703125,0.4257813-1.2578125,0.7285156-1.8017578,1.171875c-0.2167969,0.1757813,0.2216797,0.4648438,0.4570313,0.4179688
		c1.6435547-0.3222656,2.7626953-1.5625,3.5615234-2.6220703
		C229.2626953,123.1005859,228.7548828,122.7509766,228.5078125,122.9638672"/>
	<path class="st0" d="M225.3095703,125.8388672c0.6533203,0.2167969,1.3447266,0.4550781,1.8642578,0.8339844
		c0.5654297,0.4130859,0.7402344,0.9746094,1.1875,1.4414063c0.1484375,0.15625,0.6181641,0.2460938,0.6425781-0.0253906
		c0.0566406-0.640625-0.6816406-1.3457031-1.2714844-1.7568359c-0.6630859-0.4619141-1.4814453-0.7294922-2.3349609-0.9248047
		C224.9677734,125.3115234,224.9912109,125.7333984,225.3095703,125.8388672"/>
	<path class="st0" d="M228.8691406,125.9111328c0.9384766-0.1142578,1.8291016-0.3798828,2.7705078-0.4873047
		c0.8027344-0.0908203,1.7060547-0.1308594,2.4912109,0.0693359c0.1767578,0.0449219,0.3457031,0.1015625,0.5078125,0.171875
		c0.1171875-0.1933594,0.0927734-0.2275391-0.0712891-0.1015625c-1.4775391,0.9746094-4.0458984,0.2128906-5.6884766-0.0800781
		c-0.5097656-0.0917969-0.484375,0.3789063-0.1035156,0.5078125c1.4326172,0.4873047,3.0039063,0.8125,4.5908203,0.7265625
		c0.6386719-0.0351563,2.3007813-0.2978516,2.3017578-0.9638672c0.0039063-0.6298828-1.5166016-0.9150391-2.1152344-0.9824219
		c-1.6767578-0.1904297-3.5205078,0.1982422-5.0175781,0.7626953
		C228.2451172,125.6435547,228.6601563,125.9365234,228.8691406,125.9111328"/>
	<path class="st0" d="M62.484375,118.5771484c-0.1044922-1.0976563-1.6049805-1.6992188-2.949707-1.5771484
		c-1.855957,0.1689453-2.8759766,1.4677734-2.3823242,2.7939453c1.0219727,2.734375,5.4394531,5.0400391,8.9916992,5.5078125
		c0.4746094,0.0625,0.2407227-0.4140625,0.0014648-0.5117188c-2.1674805-0.8769531-4.4345703-1.4140625-6.1894531-2.7988281
		c-0.7617188-0.6035156-1.6303711-1.4355469-1.8852539-2.2685547c-0.4941406-1.609375,2.8256836-3.328125,3.8510742-1.2275391
		C61.9892578,118.6337891,62.5117188,118.8574219,62.484375,118.5771484"/>
	<path class="st0" d="M65.890625,126.3037109c-2.2783203,0.0722656-4.7626953,0.8779297-6.5239258,1.9707031
		c-1.4926758,0.9277344-3.0532227,2.6611328-2.46875,4.1894531c0.5014648,1.3105469,1.9682617,2.0996094,3.7709961,1.9980469
		c2.2744141-0.1269531,3.6000977-1.8173828,2.1308594-3.2646484c-0.2324219-0.2294922-0.8613281-0.1904297-0.6230469,0.1669922
		c1.0825195,1.6162109-1.9555664,3.1552734-3.6196289,1.9755859c-0.9013672-0.6386719-0.8032227-1.4990234-0.4047852-2.2841797
		c1.3046875-2.578125,4.7548828-3.5517578,7.9287109-4.390625C66.362793,126.5898438,66.1157227,126.296875,65.890625,126.3037109"
		/>
	<path class="st0" d="M53.6660156,121.0927734c0.8535156,1.0371094,1.8300781,2.0273438,2.9448242,2.9130859
		c0.9555664,0.7587891,2.09375,1.6425781,3.4243164,2.0019531c0.496582,0.1328125,0.4941406-0.3125,0.2211914-0.4941406
		c-1.1147461-0.7392578-2.3305664-1.3056641-3.3691406-2.1298828c-0.9682617-0.7695313-1.8286133-1.609375-2.7270508-2.4238281
		C53.9750977,120.7919922,53.440918,120.8193359,53.6660156,121.0927734"/>
	<path class="st0" d="M60.0610352,125.5097656c-2.4663086,0.3662109-5.9863281,1.9267578-6.3330078,4.0107422
		c-0.0415039,0.2480469,0.5405273,0.5429688,0.7861328,0.3261719c0.862793-0.7597656,1.3076172-1.6582031,2.328125-2.3515625
		c1.0576172-0.71875,2.2890625-1.1494141,3.5678711-1.5917969
		C60.7114258,125.7998047,60.2832031,125.4775391,60.0610352,125.5097656"/>
	<path class="st0" d="M50.8959961,123.1884766c0.871582,1.0898438,2.0458984,2.3574219,3.730957,2.7529297
		c0.3867188,0.0898438,0.3837891-0.2363281,0.1694336-0.3818359c-0.5834961-0.3984375-1.2558594-0.7148438-1.8120117-1.1386719
		c-0.5610352-0.4277344-1.043457-0.9140625-1.5517578-1.3769531
		C51.230957,122.8613281,50.6567383,122.8876953,50.8959961,123.1884766"/>
	<path class="st0" d="M54.4238281,125.3984375c-0.8095703,0.1748047-1.5727539,0.4013672-2.2167969,0.8232422
		c-0.6103516,0.3994141-1.2670898,1.0546875-1.2207031,1.6914063c0.0141602,0.2128906,0.4501953,0.4921875,0.6982422,0.2900391
		c0.2807617-0.2294922,0.3881836-0.5419922,0.5913086-0.8115234c0.1772461-0.2373047,0.3945313-0.4570313,0.6518555-0.6484375
		c0.53125-0.3935547,1.2363281-0.6523438,1.9047852-0.8847656
		C55.1689453,125.7412109,54.6953125,125.3388672,54.4238281,125.3984375"/>
	<path class="st0" d="M51.3305664,125.5498047c-1.4628906-0.5-3.1518555-0.90625-4.7773438-0.8115234
		c-0.6079102,0.0341797-2.4257813,0.2353516-2.2011719,0.9619141c0.1811523,0.5820313,1.5703125,0.9248047,2.2387695,0.9921875
		c1.6333008,0.1621094,3.3378906-0.1416016,4.8017578-0.6787109c0.4072266-0.1494141-0.1694336-0.59375-0.480957-0.5419922
		c-1.3530273,0.2226563-4.7373047,1.2011719-5.7563477,0.0634766c0.0415039,0.1142578,0.081543,0.2294922,0.1230469,0.3427734
		c0.3076172-0.6708984,2.5629883-0.5332031,3.1645508-0.4726563c0.9853516,0.1005859,1.9111328,0.3769531,2.8876953,0.5078125
		C51.65625,125.9580078,51.5195313,125.6142578,51.3305664,125.5498047"/>
	<path class="st0" d="M72.6230469,126.1435547c17.1005859,0.28125,34.2285156,0.0917969,51.3320313,0.0976563
		c16.4257813,0.0058594,32.8554688,0.0166016,49.28125,0.0234375c9.8398438,0.0039063,19.6816406,0.0019531,29.5214844,0.0039063
		c0.7148438,0,0.2666016-0.7304688-0.2617188-0.7304688c-0.046875,0-0.0947266,0-0.1416016,0
		c-0.7138672,0-0.265625,0.7304688,0.2626953,0.7304688c1.4521484,0,2.9023438,0.0078125,4.3515625-0.0332031
		c0.7158203-0.0195313,0.1455078-0.8203125-0.4472656-0.6347656c0.1757813-0.0214844,0.1992188-0.0292969,0.0703125-0.0253906
		c-0.6416016,0-0.2392578,0.65625,0.2363281,0.65625c0.0966797,0.0058594,0.1044922,0.0009766,0.0214844-0.0136719
		c0.6738281,0.1640625,0.5039063-0.6289063-0.1181641-0.6464844c-1.4589844-0.0410156-2.9179688-0.0332031-4.3769531-0.0332031
		c-0.7138672,0-0.265625,0.7304688,0.2626953,0.7304688c0.0478516,0,0.0947266,0,0.140625,0
		c0.7148438,0,0.2666016-0.7304688-0.2617188-0.7304688c-33.5195313,0.0039063-67.0371094,0.0234375-100.5566406,0.0351563
		c-9.8261719,0.0029297-19.6650391-0.0742188-29.4882813,0.0888672
		C71.9780273,125.6699219,72.277832,126.1376953,72.6230469,126.1435547"/>
</g>
<g>
	<path d="M78.1074219,146.4677734l-1.5820313,6.0351563l-1.546875,5.8125
		c-0.203125,0.6796875-0.3046875,1.2685547-0.3046875,1.765625c0,0.8935547,0.484375,1.4111328,1.453125,1.5507813
		c0.21875,0.0322266,0.328125,0.0966797,0.328125,0.1923828c0,0.1611328-0.109375,0.2412109-0.328125,0.2412109
		l-2.1210938-0.0585938l-1.9453125,0.0234375l-1.1484375-0.0117188l-0.5859375,0.0234375
		c-0.2578125,0-0.3867188-0.078125-0.3867188-0.234375c0-0.140625,0.1054688-0.21875,0.3164063-0.234375
		c0.7890625-0.0859375,1.3496094-0.3828125,1.6816406-0.890625s0.8544922-2.0351563,1.5664063-4.5820313
		c-0.140625-0.0078125-1.3007813-0.0126953-3.4794922-0.0126953l-0.6240234-0.0126953
		c-0.4150391,0-0.8242188,0.2519531-1.2265625,0.7548828l-1.5976563,2.0244141
		c-0.65625,0.84375-0.984375,1.515625-0.984375,2.015625c0,0.453125,0.4375,0.6953125,1.3125,0.7265625
		c0.328125,0.0078125,0.4921875,0.0859375,0.4921875,0.234375c0,0.09375-0.0351563,0.1503906-0.1054688,0.1699219
		s-0.328125,0.0292969-0.7734375,0.0292969l-3.4921875-0.0585938l-0.8085938,0.0234375
		c-0.1640625,0-0.2460938-0.0517578-0.2460938-0.15625c0-0.1367188,0.1171875-0.2285156,0.3515625-0.2773438
		c0.2890625-0.0546875,0.6367188-0.1923828,1.0429688-0.4140625s0.7636719-0.4746094,1.0722656-0.7587891
		c0.3085938-0.2832031,0.7636719-0.7871094,1.3652344-1.5107422l3.1757813-3.8203125l3.2226563-3.8085938
		c0.640625-0.71875,1.4453125-1.6796875,2.4140625-2.8828125c0.6875-0.8515625,1.1054688-1.3242188,1.2539063-1.4179688
		C76.2050781,146.8388672,76.9511719,146.6787109,78.1074219,146.4677734z M73.6679688,155.5146484
		c0.3105469-1.1113281,0.6328125-2.2255859,0.9667969-3.3408203c0.3818359-1.3808594,0.6435547-2.2705078,0.7871094-2.6679688
		c0.0712891-0.2431641,0.1074219-0.4589844,0.1074219-0.6474609c0-0.1484375-0.0546875-0.2226563-0.1640625-0.2226563
		c-0.125,0-0.3232422,0.1376953-0.5957031,0.4121094c-0.2714844,0.2744141-0.9443359,1.0517578-2.0166016,2.3310547
		l-2.3603516,2.8320313c-0.5009766,0.6083984-0.7519531,0.9550781-0.7519531,1.0419922
		c0,0.1513672,0.1054688,0.2382813,0.3173828,0.2617188l0.2929688-0.0117188L73.6679688,155.5146484z"/>
	<path d="M83.0644531,155.3691406c0.6640625-1.1035156,1.2890625-1.9316406,1.875-2.4833984s1.1367188-0.828125,1.6523438-0.828125
		c0.34375,0,0.6308594,0.1015625,0.8613281,0.3046875s0.3457031,0.4726563,0.3457031,0.8085938
		c0,0.28125-0.0917969,0.5429688-0.2753906,0.7851563s-0.4199219,0.3632813-0.7089844,0.3632813
		c-0.5,0-0.8125-0.2226563-0.9375-0.6679688c-0.078125-0.296875-0.1835938-0.4453125-0.3164063-0.4453125
		c-0.2421875,0-0.6484375,0.3837891-1.21875,1.1503906c-0.5703125,0.7675781-1.1445313,1.7333984-1.7226563,2.8984375
		l-1.6523438,5.0683594h-0.6328125l-0.6445313,0.0117188l-0.1640625-0.0117188
		c0.0390625-0.171875,0.2695313-0.8994141,0.6914063-2.1816406c1.1328125-4.2626953,1.6992188-6.6005859,1.6992188-7.0136719
		c0-0.1513672-0.0585938-0.2265625-0.1757813-0.2265625c-0.1484375,0-0.4306641,0.2001953-0.8447266,0.6005859
		c-0.4150391,0.4003906-0.7744141,0.8242188-1.0800781,1.2714844c-0.2421875,0.3535156-0.4296875,0.5302734-0.5625,0.5302734
		s-0.1992188-0.0625-0.1992188-0.1875c0-0.1875,0.40625-0.7441406,1.2197266-1.6699219
		c0.8125-0.9257813,1.5244141-1.3886719,2.1337891-1.3886719c0.3212891,0,0.5615234,0.0957031,0.7216797,0.2871094
		c0.1601563,0.1923828,0.2402344,0.3935547,0.2402344,0.6044922c0,0.2421875-0.046875,0.6298828-0.140625,1.1630859
		C83.1972656,154.2919922,83.1425781,154.7109375,83.0644531,155.3691406z"/>
	<path d="M97.2675781,152.1162109l-1.9804688,7.3515625l-1.5820313,5.9101563
		c-0.1953125,0.6484375-0.2929688,1.1845703-0.2929688,1.6074219c0,0.3916016,0.0722656,0.6494141,0.2167969,0.7744141
		c0.1445313,0.1259766,0.4042969,0.2041016,0.7792969,0.2353516c0.328125,0.03125,0.4921875,0.1132813,0.4921875,0.2460938
		c0,0.1796875-0.1171875,0.2695313-0.3515625,0.2695313c-0.171875,0-0.453125-0.0214844-0.84375-0.0654297
		c-0.3046875-0.0341797-0.7304688-0.0517578-1.2773438-0.0517578c-0.6171875,0-1.1054688,0.0117188-1.4648438,0.0351563
		c-0.5234375,0.0390625-0.90625,0.0585938-1.1484375,0.0585938c-0.2109375,0-0.3164063-0.0859375-0.3164063-0.2578125
		c0-0.0859375,0.0527344-0.1445313,0.1582031-0.1757813s0.3808594-0.0703125,0.8261719-0.1162109
		c0.5078125-0.0625,0.8535156-0.2900391,1.0371094-0.6816406s0.7910156-2.5166016,1.8222656-6.3740234
		c-0.9296875,1.0078125-1.859375,1.5117188-2.7890625,1.5117188c-0.8671875,0-1.5605469-0.3085938-2.0800781-0.9257813
		s-0.7792969-1.390625-0.7792969-2.3203125c0-1.6484375,0.5625-3.2363281,1.6875-4.7636719s2.2539063-2.2910156,3.3867188-2.2910156
		c0.8125,0,1.5,0.4960938,2.0625,1.4882813c0.1875,0.328125,0.3476563,0.5078125,0.4804688,0.5390625l0.8085938-2.0039063
		H97.2675781z M89.3808594,159.3935547c0,0.6796875,0.1660156,1.2363281,0.4980469,1.6699219
		s0.6972656,0.6503906,1.0957031,0.6503906c0.53125,0,1.0957031-0.2773438,1.6933594-0.8320313
		s1.0703125-1.4941406,1.4179688-2.8183594s0.5214844-2.3652344,0.5214844-3.1230469
		c0-0.625-0.1777344-1.1660156-0.5332031-1.6230469s-0.7714844-0.6855469-1.2480469-0.6855469
		c-0.5234375,0-1.0644531,0.3417969-1.6230469,1.0253906s-1.0019531,1.5957031-1.3300781,2.7363281
		S89.3808594,158.5341797,89.3808594,159.3935547z"/>
	<path d="M108.1191406,152.2333984c-0.125,0.3984375-0.3867188,1.1279297-0.7851563,2.1884766
		c-1.359375,3.5585938-2.0390625,5.7392578-2.0390625,6.5429688c0,0.1083984,0.0234375,0.1904297,0.0703125,0.2451172
		s0.1171875,0.0820313,0.2119141,0.0820313c0.2421875,0,0.5703125-0.2070313,0.9853516-0.6210938
		c0.40625-0.4140625,0.7314453-0.8085938,0.9736328-1.1835938c0.1796875-0.2890625,0.3359375-0.4335938,0.46875-0.4335938
		c0.125,0,0.1875,0.0625,0.1875,0.1875c0,0.3203125-0.4199219,0.9082031-1.2607422,1.7636719
		c-0.8398438,0.8554688-1.5810547,1.2832031-2.2216797,1.2832031c-0.2734375,0-0.4794922-0.0957031-0.6162109-0.2871094
		s-0.2050781-0.4785156-0.2050781-0.8613281c0-0.7734375,0.1640625-1.7050781,0.4921875-2.7958984
		c-1.7109375,2.6220703-3.1601563,3.9326172-4.3476563,3.9326172c-0.296875,0-0.5605469-0.1269531-0.7910156-0.3798828
		c-0.2304688-0.2539063-0.3457031-0.5527344-0.3457031-0.8955078c0-0.34375,0.0429688-0.6933594,0.1289063-1.0478516
		c0.0859375-0.3554688,0.40625-1.3642578,0.9609375-3.0263672s0.890625-2.6337891,1.0078125-2.9140625
		c0.140625-0.3359375,0.2109375-0.6240234,0.2109375-0.8662109c0-0.0849609-0.0195313-0.1494141-0.0585938-0.1923828
		s-0.1015625-0.0644531-0.1875-0.0644531c-0.3369141,0-0.9501953,0.5273438-1.8417969,1.5820313
		c-0.3447266,0.4140625-0.5673828,0.6210938-0.6689453,0.6210938c-0.109375,0-0.1640625-0.0546875-0.1640625-0.1640625
		c0-0.2734375,0.4082031-0.8144531,1.2255859-1.6230469s1.5341797-1.2128906,2.1513672-1.2128906
		c0.2900391,0,0.5419922,0.1171875,0.7568359,0.3515625c0.2148438,0.2333984,0.3222656,0.5029297,0.3222656,0.8076172
		c0,0.4443359-0.2539063,1.2910156-0.7617188,2.5400391c-1.03125,2.5439453-1.546875,4.2177734-1.546875,5.0205078
		c0,0.1484375,0.0410156,0.2851563,0.1230469,0.4091797c0.0820313,0.125,0.1816406,0.1875,0.2988281,0.1875
		c0.15625,0,0.3867188-0.1015625,0.6914063-0.3046875c0.3046875-0.2021484,0.8164063-0.7861328,1.5351563-1.7490234
		c0.71875-0.9638672,1.375-2.0703125,1.96875-3.3183594l1.7929688-3.8037109
		c0.1328125-0.046875,0.28125-0.0703125,0.4453125-0.0703125
		C107.5136719,152.1630859,107.7910156,152.1865234,108.1191406,152.2333984z"/>
	<path d="M111.3769531,161.3623047c0,0.1328125,0.0292969,0.2324219,0.0878906,0.2988281s0.1425781,0.0996094,0.2529297,0.0996094
		c0.2421875,0,0.578125-0.1367188,1.0087891-0.4101563c0.4296875-0.2734375,0.8408203-0.6132813,1.2314453-1.0195313
		c0.171875-0.1796875,0.3085938-0.2695313,0.4101563-0.2695313c0.140625,0,0.2109375,0.0625,0.2109375,0.1875
		c0,0.2734375-0.3945313,0.6933594-1.1845703,1.2597656c-0.7890625,0.5664063-1.5205078,0.8496094-2.1923828,0.8496094
		c-0.4296875,0-0.7568359-0.0878906-0.9794922-0.2636719s-0.3339844-0.3808594-0.3339844-0.6152344
		c0-0.3515625,0.4335938-1.5820313,1.3007813-3.6914063c1.1015625-2.65625,1.6523438-4.1640625,1.6523438-4.5234375
		c0-0.140625-0.0253906-0.2441406-0.0761719-0.3105469s-0.1308594-0.0996094-0.2402344-0.0996094
		c-0.3369141,0-0.8759766,0.359375-1.6191406,1.078125c-0.2900391,0.28125-0.4931641,0.421875-0.6103516,0.421875
		c-0.109375,0-0.1640625-0.0625-0.1640625-0.1875c0-0.203125,0.4101563-0.6191406,1.2314453-1.2480469
		s1.5517578-0.9433594,2.1933594-0.9433594c0.265625,0,0.4941406,0.0996094,0.6855469,0.2988281
		s0.2871094,0.4121094,0.2871094,0.6386719c0,0.28125-0.0488281,0.5585938-0.1464844,0.8320313
		s-0.6816406,1.6796875-1.7519531,4.21875C111.7949219,160.0966797,111.3769531,161.2294922,111.3769531,161.3623047z
		 M115.1738281,146.3388672c0.25,0,0.4648438,0.0908203,0.6445313,0.2714844s0.2695313,0.3964844,0.2695313,0.6484375
		c0,0.2597656-0.0898438,0.4794922-0.2695313,0.6601563c-0.1796875,0.1816406-0.3945313,0.2714844-0.6445313,0.2714844
		c-0.2578125,0-0.4765625-0.0898438-0.65625-0.2714844c-0.1796875-0.1806641-0.2695313-0.4003906-0.2695313-0.6601563
		s0.0917969-0.4775391,0.2753906-0.6542969S114.9238281,146.3388672,115.1738281,146.3388672z"/>
	<path d="M120.5146484,152.7841797c-0.0625,0.2255859-0.2685547,0.8447266-0.6181641,1.8564453
		c-1.15625,3.2783203-1.734375,5.2753906-1.734375,5.9902344c0,0.4716797,0.1757813,0.7080078,0.5283203,0.7080078
		c0.578125,0,1.4384766-0.6640625,2.5800781-1.9921875c0.1484375-0.171875,0.2773438-0.2578125,0.3867188-0.2578125
		c0.140625,0,0.2109375,0.0546875,0.2109375,0.1630859c0,0.203125-0.4824219,0.765625-1.4482422,1.6875
		c-0.9648438,0.9228516-1.9677734,1.3837891-3.0068359,1.3837891c-0.359375,0-0.6289063-0.1015625-0.8095703-0.3046875
		c-0.1796875-0.203125-0.2695313-0.421875-0.2695313-0.65625c0-0.53125,0.1679688-1.2490234,0.5039063-2.1542969
		c0.0234375-0.0625,0.7382813-2.1796875,2.1445313-6.3535156l-1.1015625-0.0234375l-0.7734375,0.0351563
		c-0.109375,0-0.1640625-0.0546875-0.1640625-0.1640625c0-0.2265625,0.0234375-0.3574219,0.0703125-0.3925781
		s0.2578125-0.0683594,0.6328125-0.0996094s0.8916016-0.046875,1.5498047-0.046875
		c0.1933594-0.6503906,0.4345703-1.3876953,0.7236328-2.2109375l0.4570313-1.3398438
		c0.0234375-0.0625,0.0703125-0.09375,0.140625-0.09375c0.28125,0,0.5566406,0.0371094,0.8261719,0.1113281
		s0.4042969,0.1542969,0.4042969,0.2402344l-0.0351563,0.09375l-1.0664063,3.2578125l1.4414063,0.0351563
		c0.4765625,0.015625,0.7246094,0.0292969,0.7441406,0.0410156s0.0292969,0.0410156,0.0292969,0.0878906
		c0,0.3515625-0.0585938,0.5273438-0.1757813,0.5273438l-0.8671875-0.0703125L120.5146484,152.7841797z"/>
	<path d="M124.8769531,157.9550781c-0.25,1.0771484-0.375,1.8935547-0.375,2.4472656
		c0,0.3359375,0.0957031,0.6386719,0.2871094,0.9072266c0.1923828,0.2695313,0.4521484,0.4042969,0.7802734,0.4042969
		c0.46875,0,0.9658203-0.1933594,1.4892578-0.5800781c0.5244141-0.3867188,0.9658203-0.8574219,1.3251953-1.4121094
		c0.1796875-0.2734375,0.34375-0.4101563,0.4921875-0.4101563s0.2226563,0.0703125,0.2226563,0.2109375
		c0,0.390625-0.4316406,0.9550781-1.2958984,1.6933594c-0.8632813,0.7382813-1.7636719,1.1074219-2.7021484,1.1074219
		c-0.71875,0-1.2832031-0.2636719-1.6943359-0.7919922c-0.4101563-0.5283203-0.6152344-1.1357422-0.6152344-1.8242188
		c0-1.4941406,0.6777344-3.1484375,2.0332031-4.9628906s2.6777344-2.7216797,3.9667969-2.7216797
		c0.453125,0,0.8300781,0.1601563,1.1308594,0.4814453s0.4511719,0.6738281,0.4511719,1.0576172
		c0,0.7675781-0.4238281,1.5507813-1.2714844,2.3496094S126.8457031,157.3916016,124.8769531,157.9550781z M125.0527344,157.4277344
		c1.1796875-0.5166016,2.1660156-1.1816406,2.9589844-1.9921875c0.7929688-0.8115234,1.1894531-1.5576172,1.1894531-2.2392578
		c0-0.1484375-0.0566406-0.2958984-0.1699219-0.4404297c-0.1132813-0.1455078-0.2675781-0.2177734-0.4628906-0.2177734
		c-0.5078125,0-1.0898438,0.3427734-1.7460938,1.0283203S125.5761719,155.5390625,125.0527344,157.4277344z"/>
	<path d="M137.2167969,152.0927734c0.40625,0,0.7675781,0.140625,1.0839844,0.421875s0.4746094,0.6210938,0.4746094,1.0195313
		c0,0.28125-0.0800781,0.5-0.2402344,0.65625s-0.3339844,0.234375-0.5214844,0.234375
		c-0.21875,0-0.3828125-0.0664063-0.4921875-0.1992188s-0.2148438-0.375-0.3164063-0.7265625
		c-0.09375-0.3671875-0.1875-0.5859375-0.28125-0.65625s-0.2109375-0.1054688-0.3515625-0.1054688
		c-0.453125,0-0.9980469,0.3486328-1.6347656,1.0458984s-1.1621094,1.6640625-1.5761719,2.8994141
		c-0.4140625,1.234375-0.6210938,2.2763672-0.6210938,3.1259766c0,0.6386719,0.1074219,1.1181641,0.3222656,1.4375
		s0.5332031,0.4794922,0.9550781,0.4794922c0.4609375,0,0.9648438-0.2275391,1.5117188-0.6826172s1-0.9462891,1.359375-1.4755859
		c0.1875-0.2714844,0.34375-0.4082031,0.46875-0.4082031s0.1875,0.0703125,0.1875,0.2109375
		c0,0.265625-0.4238281,0.8320313-1.2714844,1.6992188c-0.8486328,0.8671875-1.8349609,1.3007813-2.9609375,1.3007813
		c-0.734375,0-1.3183594-0.21875-1.7529297-0.6552734c-0.4335938-0.4375-0.6503906-1.0107422-0.6503906-1.7207031
		c0-1.2255859,0.3828125-2.4853516,1.1494141-3.78125c0.765625-1.2949219,1.6152344-2.3056641,2.5498047-3.03125
		C135.5419922,152.4560547,136.4111328,152.0927734,137.2167969,152.0927734z"/>
	<path d="M143.5195313,152.7841797c-0.0625,0.2255859-0.2695313,0.8447266-0.6191406,1.8564453
		c-1.15625,3.2783203-1.734375,5.2753906-1.734375,5.9902344c0,0.4716797,0.1757813,0.7080078,0.5283203,0.7080078
		c0.5791016,0,1.4384766-0.6640625,2.5810547-1.9921875c0.1484375-0.171875,0.2773438-0.2578125,0.3867188-0.2578125
		c0.140625,0,0.2109375,0.0546875,0.2109375,0.1630859c0,0.203125-0.4824219,0.765625-1.4492188,1.6875
		c-0.9648438,0.9228516-1.9677734,1.3837891-3.0068359,1.3837891c-0.359375,0-0.6289063-0.1015625-0.8095703-0.3046875
		c-0.1796875-0.203125-0.2695313-0.421875-0.2695313-0.65625c0-0.53125,0.1679688-1.2490234,0.5039063-2.1542969
		c0.0234375-0.0625,0.7382813-2.1796875,2.1445313-6.3535156l-1.1015625-0.0234375l-0.7734375,0.0351563
		c-0.109375,0-0.1640625-0.0546875-0.1640625-0.1640625c0-0.2265625,0.0234375-0.3574219,0.0703125-0.3925781
		s0.2578125-0.0683594,0.6328125-0.0996094s0.8916016-0.046875,1.5498047-0.046875
		c0.1943359-0.6503906,0.4345703-1.3876953,0.7236328-2.2109375l0.4570313-1.3398438
		c0.0234375-0.0625,0.0703125-0.09375,0.140625-0.09375c0.28125,0,0.5566406,0.0371094,0.8261719,0.1113281
		s0.4042969,0.1542969,0.4042969,0.2402344l-0.0351563,0.09375l-1.0664063,3.2578125l1.4414063,0.0351563
		c0.4765625,0.015625,0.7246094,0.0292969,0.7441406,0.0410156s0.0292969,0.0410156,0.0292969,0.0878906
		c0,0.3515625-0.0585938,0.5273438-0.1757813,0.5273438l-0.8671875-0.0703125L143.5195313,152.7841797z"/>
	<path d="M155.8730469,152.2333984c-0.125,0.3984375-0.3867188,1.1279297-0.7851563,2.1884766
		c-1.359375,3.5585938-2.0390625,5.7392578-2.0390625,6.5429688c0,0.1083984,0.0234375,0.1904297,0.0703125,0.2451172
		s0.1171875,0.0820313,0.2109375,0.0820313c0.2431641,0,0.5712891-0.2070313,0.9863281-0.6210938
		c0.40625-0.4140625,0.7304688-0.8085938,0.9736328-1.1835938c0.1796875-0.2890625,0.3359375-0.4335938,0.46875-0.4335938
		c0.125,0,0.1875,0.0625,0.1875,0.1875c0,0.3203125-0.4199219,0.9082031-1.2607422,1.7636719
		s-1.5810547,1.2832031-2.2216797,1.2832031c-0.2744141,0-0.4794922-0.0957031-0.6162109-0.2871094
		s-0.2050781-0.4785156-0.2050781-0.8613281c0-0.7734375,0.1640625-1.7050781,0.4921875-2.7958984
		c-1.7109375,2.6220703-3.1601563,3.9326172-4.3476563,3.9326172c-0.296875,0-0.5605469-0.1269531-0.7910156-0.3798828
		c-0.2304688-0.2539063-0.3457031-0.5527344-0.3457031-0.8955078c0-0.34375,0.0429688-0.6933594,0.1289063-1.0478516
		c0.0859375-0.3554688,0.40625-1.3642578,0.9609375-3.0263672s0.890625-2.6337891,1.0078125-2.9140625
		c0.140625-0.3359375,0.2109375-0.6240234,0.2109375-0.8662109c0-0.0849609-0.0195313-0.1494141-0.0585938-0.1923828
		s-0.1015625-0.0644531-0.1875-0.0644531c-0.3369141,0-0.9511719,0.5273438-1.8417969,1.5820313
		c-0.3447266,0.4140625-0.5673828,0.6210938-0.6689453,0.6210938c-0.109375,0-0.1640625-0.0546875-0.1640625-0.1640625
		c0-0.2734375,0.4082031-0.8144531,1.2255859-1.6230469c0.8164063-0.8085938,1.5341797-1.2128906,2.1513672-1.2128906
		c0.2900391,0,0.5419922,0.1171875,0.7568359,0.3515625c0.2148438,0.2333984,0.3222656,0.5029297,0.3222656,0.8076172
		c0,0.4443359-0.2539063,1.2910156-0.7617188,2.5400391c-1.03125,2.5439453-1.546875,4.2177734-1.546875,5.0205078
		c0,0.1484375,0.0410156,0.2851563,0.1230469,0.4091797c0.0820313,0.125,0.1816406,0.1875,0.2988281,0.1875
		c0.15625,0,0.3867188-0.1015625,0.6914063-0.3046875c0.3046875-0.2021484,0.8164063-0.7861328,1.5351563-1.7490234
		c0.71875-0.9638672,1.375-2.0703125,1.96875-3.3183594l1.7929688-3.8037109
		c0.1328125-0.046875,0.28125-0.0703125,0.4453125-0.0703125
		C155.2675781,152.1630859,155.5449219,152.1865234,155.8730469,152.2333984z"/>
	<path d="M161.2519531,155.3691406c0.6640625-1.1035156,1.2890625-1.9316406,1.875-2.4833984s1.1367188-0.828125,1.6523438-0.828125
		c0.34375,0,0.6308594,0.1015625,0.8613281,0.3046875s0.3457031,0.4726563,0.3457031,0.8085938
		c0,0.28125-0.0917969,0.5429688-0.2753906,0.7851563s-0.4199219,0.3632813-0.7089844,0.3632813
		c-0.5,0-0.8125-0.2226563-0.9375-0.6679688c-0.078125-0.296875-0.1835938-0.4453125-0.3164063-0.4453125
		c-0.2421875,0-0.6484375,0.3837891-1.21875,1.1503906c-0.5703125,0.7675781-1.1445313,1.7333984-1.7226563,2.8984375
		l-1.6523438,5.0683594h-0.6328125l-0.6445313,0.0117188l-0.1640625-0.0117188
		c0.0390625-0.171875,0.2695313-0.8994141,0.6914063-2.1816406c1.1328125-4.2626953,1.6992188-6.6005859,1.6992188-7.0136719
		c0-0.1513672-0.0585938-0.2265625-0.1757813-0.2265625c-0.1484375,0-0.4306641,0.2001953-0.8457031,0.6005859
		c-0.4140625,0.4003906-0.7744141,0.8242188-1.0791016,1.2714844c-0.2421875,0.3535156-0.4296875,0.5302734-0.5625,0.5302734
		s-0.1992188-0.0625-0.1992188-0.1875c0-0.1875,0.40625-0.7441406,1.2197266-1.6699219
		c0.8125-0.9257813,1.5244141-1.3886719,2.1337891-1.3886719c0.3203125,0,0.5615234,0.0957031,0.7216797,0.2871094
		c0.1601563,0.1923828,0.2402344,0.3935547,0.2402344,0.6044922c0,0.2421875-0.046875,0.6298828-0.140625,1.1630859
		C161.3847656,154.2919922,161.3300781,154.7109375,161.2519531,155.3691406z"/>
	<path d="M174.3183594,152.2568359c-0.21875,0.484375-0.6601563,1.78125-1.3242188,3.890625l-1.03125,3.2695313
		c-0.21875,0.59375-0.328125,1.1015625-0.328125,1.5234375c0,0.265625,0.1289063,0.3984375,0.3867188,0.3984375
		c0.1796875,0,0.4443359-0.1269531,0.7919922-0.3808594c0.3486328-0.2539063,0.6865234-0.5761719,1.0146484-0.9667969
		c0.21875-0.2578125,0.3720703-0.3867188,0.4580078-0.3867188c0.1328125,0,0.1992188,0.0664063,0.1992188,0.1992188
		c0,0.2109375-0.4257813,0.6777344-1.2783203,1.4003906s-1.6103516,1.0839844-2.2744141,1.0839844
		c-0.4541016,0-0.6806641-0.3076172-0.6806641-0.9238281c0-0.4277344,0.0273438-0.9736328,0.0820313-1.6357422
		c-1.2109375,1.6357422-2.4765625,2.4541016-3.796875,2.4541016c-0.5703125,0-0.9921875-0.2089844-1.265625-0.6269531
		s-0.4101563-0.8886719-0.4101563-1.4121094c0-1.5078125,0.7519531-3.2402344,2.2558594-5.1972656
		s2.9238281-2.9355469,4.2597656-2.9355469c0.3515625,0,0.6308594,0.1210938,0.8378906,0.3642578
		c0.2070313,0.2421875,0.3378906,0.6103516,0.3925781,1.1035156c0.140625-0.3603516,0.3632813-0.8300781,0.6679688-1.4091797
		c0.25,0.0390625,0.4882813,0.078125,0.7148438,0.1171875C174.1542969,152.2255859,174.2636719,152.2490234,174.3183594,152.2568359
		z M170.7207031,152.6552734c-0.453125,0-1.0078125,0.3261719-1.6640625,0.9804688
		c-0.65625,0.6523438-1.2382813,1.6132813-1.7460938,2.8798828c-0.5078125,1.2675781-0.7617188,2.3242188-0.7617188,3.1689453
		c0,0.5009766,0.0898438,0.8779297,0.2695313,1.1318359c0.1796875,0.2548828,0.4453125,0.3818359,0.796875,0.3818359
		c0.90625,0,1.8222656-0.8300781,2.7480469-2.4902344s1.3886719-3.1621094,1.3886719-4.5058594
		c0-0.4375-0.0957031-0.8046875-0.2871094-1.1015625S171.0253906,152.6552734,170.7207031,152.6552734z"/>
	<path d="M186.7871094,153.6396484c-0.3359375,0.1796875-0.5898438,0.2695313-0.7617188,0.2695313
		c-0.1328125,0-0.4375-0.171875-0.9140625-0.515625c-0.609375-0.4375-1.1054688-0.65625-1.4882813-0.65625
		c-0.1796875,0-0.3144531,0.0234375-0.4042969,0.0703125s-0.1347656,0.1171875-0.1347656,0.2109375s0.125,0.1992188,0.375,0.3164063
		c0.328125,0.1484375,0.4921875,0.421875,0.4921875,0.8203125c0,0.1953125-0.0761719,0.3886719-0.2285156,0.5800781
		s-0.3691406,0.2871094-0.6503906,0.2871094c-0.3125,0-0.5742188-0.1015625-0.7851563-0.3046875
		s-0.3164063-0.4414063-0.3164063-0.7148438c0-0.4765625,0.2324219-0.9140625,0.6972656-1.3125
		s1.0292969-0.5976563,1.6933594-0.5976563c0.5,0,1.2070313,0.2304688,2.1210938,0.6914063
		c0.1875,0.1015625,0.3398438,0.1523438,0.4570313,0.1523438c0.1953125,0,0.4257813-0.1738281,0.6914063-0.5224609
		c0.1875-0.2373047,0.34375-0.3564453,0.46875-0.3564453c0.140625,0,0.2109375,0.0664063,0.2109375,0.1992188
		c0,0.109375-0.0976563,0.2773438-0.2929688,0.5039063c-0.265625,0.3046875-0.6894531,0.9121094-1.2714844,1.8222656
		s-1.0117188,1.734375-1.2890625,2.4726563s-0.4160156,1.3886719-0.4160156,1.9511719
		c0,0.5234375,0.1367188,1.0214844,0.4101563,1.4941406s0.6601563,0.7089844,1.1601563,0.7089844
		c0.859375,0,1.7890625-0.5859375,2.7890625-1.7578125c0.1953125-0.234375,0.3125-0.3710938,0.3515625-0.4101563
		c-0.015625-0.2578125-0.0234375-0.4492188-0.0234375-0.5742188c0-1.734375,0.2675781-3.2089844,0.8027344-4.4238281
		s1.1269531-1.8222656,1.7753906-1.8222656c0.3125,0,0.5449219,0.1035156,0.6972656,0.3105469
		s0.2285156,0.5175781,0.2285156,0.9316406c0,0.5703125-0.1816406,1.3144531-0.5449219,2.2324219
		s-0.8808594,1.7714844-1.5527344,2.5605469c0.2109375,0.90625,0.4960938,1.5917969,0.8554688,2.0566406
		s0.7265625,0.6972656,1.1015625,0.6972656c0.6875,0,1.4082031-0.5664063,2.1621094-1.6992188
		s1.1308594-2.3085938,1.1308594-3.5273438c0-0.3828125-0.078125-0.9375-0.234375-1.6640625
		c-0.1015625-0.484375-0.1523438-0.796875-0.1523438-0.9375c0-0.2265625,0.0722656-0.4140625,0.2167969-0.5625
		s0.3066406-0.2226563,0.4863281-0.2226563c0.5625,0,0.84375,0.359375,0.84375,1.078125
		c0,0.84375-0.2519531,2.0957031-0.7558594,3.7558594s-1.1855469,2.9082031-2.0449219,3.7441406
		s-1.7109375,1.2539063-2.5546875,1.2539063c-0.6796875,0-1.2363281-0.2109375-1.6699219-0.6347656
		c-0.4335938-0.4228516-0.6894531-0.9902344-0.7675781-1.703125c-0.7421875,0.8222656-1.4667969,1.4394531-2.1738281,1.8496094
		c-0.7070313,0.4111328-1.3964844,0.6171875-2.0683594,0.6171875c-0.59375,0-1.0625-0.1894531-1.40625-0.5673828
		c-0.34375-0.3789063-0.515625-0.8564453-0.515625-1.4335938
		C183.5878906,158.8203125,184.6542969,156.5810547,186.7871094,153.6396484z M190.9472656,157.5947266
		c0.5-0.6728516,0.875-1.3164063,1.125-1.9296875c0.25-0.6142578,0.375-1.1992188,0.375-1.7548828
		c0-0.3203125-0.0390625-0.5605469-0.1171875-0.7216797c-0.078125-0.1601563-0.1953125-0.2402344-0.3515625-0.2402344
		c-0.1875,0-0.4433594,0.2558594-0.7675781,0.7685547s-0.4863281,1.1835938-0.4863281,2.0126953
		C190.7246094,156.3154297,190.7988281,156.9375,190.9472656,157.5947266z"/>
	<path d="M200.5214844,157.9550781c-0.25,1.0771484-0.375,1.8935547-0.375,2.4472656
		c0,0.3359375,0.0957031,0.6386719,0.2871094,0.9072266c0.1914063,0.2695313,0.4511719,0.4042969,0.7802734,0.4042969
		c0.46875,0,0.9648438-0.1933594,1.4892578-0.5800781c0.5234375-0.3867188,0.9658203-0.8574219,1.3251953-1.4121094
		c0.1796875-0.2734375,0.34375-0.4101563,0.4921875-0.4101563s0.2226563,0.0703125,0.2226563,0.2109375
		c0,0.390625-0.4316406,0.9550781-1.2958984,1.6933594c-0.8632813,0.7382813-1.7636719,1.1074219-2.7021484,1.1074219
		c-0.71875,0-1.2841797-0.2636719-1.6943359-0.7919922s-0.6152344-1.1357422-0.6152344-1.8242188
		c0-1.4941406,0.6777344-3.1484375,2.0332031-4.9628906s2.6777344-2.7216797,3.9667969-2.7216797
		c0.453125,0,0.8300781,0.1601563,1.1308594,0.4814453s0.4511719,0.6738281,0.4511719,1.0576172
		c0,0.7675781-0.4238281,1.5507813-1.2714844,2.3496094S202.4902344,157.3916016,200.5214844,157.9550781z M200.6972656,157.4277344
		c1.1796875-0.5166016,2.1660156-1.1816406,2.9589844-1.9921875c0.7929688-0.8115234,1.1894531-1.5576172,1.1894531-2.2392578
		c0-0.1484375-0.0566406-0.2958984-0.1699219-0.4404297c-0.1132813-0.1455078-0.2675781-0.2177734-0.4628906-0.2177734
		c-0.5078125,0-1.0898438,0.3427734-1.7460938,1.0283203S201.2207031,155.5390625,200.6972656,157.4277344z"/>
	<path d="M212.4628906,146.0810547l-2.0107422,7.0205078c1.1318359-0.7197266,2.0136719-1.0791016,2.6455078-1.0791016
		c0.7890625,0,1.3935547,0.3359375,1.8154297,1.0068359c0.4208984,0.6708984,0.6318359,1.4628906,0.6318359,2.3759766
		c0,1.7246094-0.6289063,3.3085938-1.8867188,4.7529297c-1.2578125,1.4433594-2.5078125,2.1650391-3.75,2.1650391
		c-0.765625,0-1.3925781-0.2265625-1.8808594-0.6787109c-0.4882813-0.453125-0.7324219-1.0966797-0.7324219-1.9316406
		c0-0.7880859,0.3164063-2.2832031,0.9492188-4.484375l2.1445313-7.3662109
		c0.0859375-0.2734375,0.1289063-0.4921875,0.1289063-0.65625c0-0.4375-0.3710938-0.6757813-1.1132813-0.7148438
		c-0.1875-0.0078125-0.28125-0.0820313-0.28125-0.2226563c0-0.125,0.078125-0.1875,0.234375-0.1875l1.875,0.046875
		C211.6074219,146.1279297,212.0175781,146.1123047,212.4628906,146.0810547z M210.3769531,161.7490234
		c0.9296875,0,1.75-0.6708984,2.4609375-2.0126953c0.7109375-1.3427734,1.0664063-2.890625,1.0664063-4.6464844
		c0-0.8193359-0.1074219-1.4316406-0.3222656-1.8378906c-0.2158203-0.4052734-0.5380859-0.6083984-0.96875-0.6083984
		c-0.5556641,0-1.1318359,0.3193359-1.7304688,0.9589844s-1.0742188,1.6054688-1.4287109,2.8964844
		c-0.3535156,1.2919922-0.5302734,2.2773438-0.5302734,2.9560547c0,0.7646484,0.1210938,1.3378906,0.3632813,1.7207031
		C209.5292969,161.5576172,209.8925781,161.7490234,210.3769531,161.7490234z"/>
	<path d="M216.8691406,160.0146484c0.3203125,0,0.59375,0.1132813,0.8203125,0.3398438s0.3398438,0.4960938,0.3398438,0.8085938
		c0,0.3203125-0.1132813,0.59375-0.3398438,0.8203125s-0.5,0.3398438-0.8203125,0.3398438s-0.5917969-0.1132813-0.8144531-0.3398438
		s-0.3339844-0.5-0.3339844-0.8203125c0-0.328125,0.1132813-0.6015625,0.3398438-0.8203125
		S216.5566406,160.0146484,216.8691406,160.0146484z"/>
</g>
</svg>
